<?xml version="1.0" encoding="utf-8"?>
<!-- Generator: Adobe Illustrator 25.0.0, SVG Export Plug-In . SVG Version: 6.00 Build 0)  -->
<svg version="1.1" id="Layer_1" xmlns="http://www.w3.org/2000/svg" xmlns:xlink="http://www.w3.org/1999/xlink" x="0px" y="0px"
	 viewBox="0 0 162 35" style="enable-background:new 0 0 162 35;" xml:space="preserve">
<style type="text/css">
	.st0{fill:#ED4924;}
	.st1{fill:#C22735;}
</style>
<g>
	<path class="st0" d="M37.3,26.6c-1,0-1.9,0.8-1.9,1.9c0,1,0.8,1.9,1.9,1.9c1,0,1.9-0.8,1.9-1.9C39.1,27.4,38.3,26.6,37.3,26.6
		 M37.3,29.3c-0.5,0-0.8-0.4-0.8-0.8c0-0.5,0.4-0.8,0.8-0.8c0.5,0,0.8,0.4,0.8,0.8S37.7,29.3,37.3,29.3"/>
	<path class="st0" d="M31.1,14.8h-2c-0.1,0-0.1-0.1-0.1-0.1V14c0-0.1,0.1-0.1,0.1-0.1h2c0.1,0,0.1,0.1,0.1,0.1v0.6
		C31.2,14.7,31.2,14.8,31.1,14.8"/>
	<path class="st0" d="M28.6,24.1c0,0,0.6,0.3,1,0h0.8c0,0,1.6,0,1.6,0.7c0.1,0.7,0,0.6,0,0.6h-3.7c0,0-0.2-0.6,0-0.9
		C28.4,24.1,28.6,24.1,28.6,24.1"/>
	<path class="st0" d="M34.2,12.2C32.8,12,30.3,12,30,13.9c0,0.3,0,1,0,1h4.3C34.2,14.4,34.2,13,34.2,12.2"/>
	<path class="st0" d="M34.5,12.2c0,1.2,0,2.5,0.2,2.7h0.4v-2.6C35.1,12.3,34.9,12.2,34.5,12.2"/>
	<path class="st0" d="M31.1,12.1l-0.3-0.3c0-0.1,0-0.1,0-0.2c0-0.5-0.3-0.9-0.6-0.9c-0.3,0-0.6,0.4-0.6,0.9s0.3,0.9,0.6,0.9
		c0.2,0,0.4-0.2,0.5-0.4l0.2,0.2l0.2,0.9h0.2L31.1,12.1z"/>
	<path class="st0" d="M37.8,25.6c-1.1,0-2,0.7-2.9,1.5c-0.3,0.3-0.7,0.5-1,0.8c0,0.2-0.1,0.4-0.1,0.6c0,1.9,1.5,3.4,3.4,3.4
		s3.4-1.5,3.4-3.4c0-0.9-0.4-1.7-1-2.4C39.1,25.8,38.4,25.6,37.8,25.6 M37.3,30.6c-1.2,0-2.1-1-2.1-2.1c0-1.2,1-2.1,2.1-2.1
		c1.2,0,2.1,1,2.1,2.1C39.4,29.6,38.4,30.6,37.3,30.6"/>
	<path class="st0" d="M11.7,29.8c0.3,0,5,0.6,5,0.6l-5.3,0.2L11.7,29.8z"/>
	<path class="st0" d="M10.3,27.7c0.3,0,5,0.6,5,0.6L10,28.4L10.3,27.7z"/>
	<path class="st0" d="M6.1,14.9c0.3,0,9,0.6,9,0.6l-9.2,0.2L6.1,14.9z"/>
	<path class="st1" d="M17.8,18.1c0-1.2-4.4-2.7-5.1-0.5c-0.1,0.3-0.3,0.5-0.6,0.5c-1.6,0-3.8,0-5.7-0.2c-3.2-0.3-4.4-0.4-4.3,0.5
		c0,0.9,1.2,0.8,4.4,0.4c1.9-0.3,4.1-0.4,5.7-0.4c0.3,0,0.5,0.2,0.6,0.4C13.4,21,17.8,19.2,17.8,18.1"/>
	<path class="st1" d="M2.9,24.1v0.1c0,0,2.4-0.1,2.4,0.1s-0.4,0.2-2.4,0.1v0.1c1.6,0.1,2.4,0.1,2.4,0.3c0,0.2-0.8,0.2-2.4,0.1V25
		c2,0.1,2.4,0.1,2.4,0.3c0,0.2-2.4,0-2.4,0v0.1c1.5,0.3,3.3,0.9,3.7-0.2c0.1-0.2,0.3-0.3,0.5-0.3c1.2,0,2.8,0.1,4.2,0.4
		c2.3,0.4,3.2,0.4,3.2-0.2c0-0.7-0.9-0.7-3.2-0.5c-1.4,0.1-3.1,0.1-4.2,0.1c-0.2,0-0.4-0.1-0.4-0.3C6.2,23.5,4.4,24,2.9,24.1"/>
	<path class="st0" d="M15.7,28.4c0,1,0.8,1.8,1.8,1.8c0.9,0,1.6-0.6,1.7-1.4h-0.5c-0.1,0-0.3,0-0.4-0.1c-0.1,0.3-0.4,0.6-0.8,0.6
		c-0.5,0-0.8-0.4-0.8-0.8c0-0.1,0-0.2,0.1-0.3h-1l0,0C15.7,28.2,15.7,28.3,15.7,28.4"/>
	<path class="st0" d="M19.5,28.8c-0.2,1-1,1.7-2,1.7c-1.1,0-2.1-0.9-2.1-2.1c0-0.1,0-0.2,0-0.3H14c0,0.1,0,0.2,0,0.3
		c0,1.9,1.5,3.4,3.4,3.4c1.8,0,3.2-1.3,3.4-3.1L19.5,28.8z"/>
	<path class="st1" d="M23.6,26.5L19,26.6c-0.5,0-0.9,0.4-0.9,0.9s0.4,0.9,0.9,0.9l4.7,0.1c0.5,0,0.9-0.5,0.9-1S24.2,26.5,23.6,26.5"
		/>
	<path class="st1" d="M32.3,27.5c0.3,0.1,1.1,0.2,1.4,0c0.3-0.2,0.7-0.5,1-0.8c0.9-0.7,1.9-1.5,3-1.5c1,0,2,0.4,2.7,1.1
		c-0.5-1.7-2.1-3-4-3C34.2,23.4,32.4,25.3,32.3,27.5"/>
	<path class="st0" d="M37.4,22.5c-0.1-0.3-0.5-1.2-0.5-1.2l-3.2-6.6H31c0,0,1.7,1.4,1.7,4.2c0,1.4-0.8,3.9-2.1,5.3L30,24v-1.2
		c0,0-0.4-5.9-0.5-6.1c-0.3-0.4-4.9-1.3-5.8-1.4l0.2-2.8l1.2,1.8h5.4v-0.9l-4.4-0.2l-0.3-1.5c0.1-0.5-1.3-2.6-1.3-2.6l0.3-0.4
		C25.1,9,25.5,9,25.5,9c0.8-0.3,1-1,1-1S27,8.2,27,8.1c0-0.2-0.2-0.8-0.2-0.8V6.5V6.3l0,0H28c0.3,0,0.6-0.4,0.4-0.7l-0.6-1
		c-0.1-0.1-0.2-0.2-0.3-0.2c-0.3-1.2-1.4-2.2-2.7-2.2C23.2,2.2,22,3.5,22,5c0,1.2,0.8,2.2,1.8,2.6l-0.4,0.6c0,0-0.5-0.1-1.3,0.3
		c-0.2-0.1-0.4-0.2-0.6-0.3l-6.3-0.4c-0.6,0-1,0.4-1,1V9c2.2,0.1,5.3,0.2,5.3,0.2l-5.2,0.4v1.8c1.9,0.1,3.8,0.2,3.8,0.2L14.3,12v1.1
		c0,0.1,0.1,0.2,0.1,0.3c0.6-0.1,1.2,0.1,1.6,0.6s0.5,1.2,0.2,1.8c0.5-0.1,1.1,0.1,1.5,0.5l0,0c0,0,1,1,2.8,1.5
		c0.7,0.2,3.6,0.7,0.6,0.7c-2,0.1-3.2,0.5-4.1,1.5l0,0c-0.2,0.3-0.4,0.6-0.7,0.9c-0.5,0.4-1.2,0.6-1.8,0.6L14,23.1
		c0.3,0.2,0.6,0.4,0.6,0.4c0.9,1.1,0.7,2.8-0.4,3.7c-0.1,0.1-0.3,0.2-0.4,0.3c-0.1,0.1-0.2,0.1-0.3,0.2H18c0-0.1,0-0.2,0-0.3
		c0-0.6,0.5-1.2,1.2-1.2l4.9-0.1c0.7,0,1.2,0.7,1.2,1.3c0,0.3-0.1,0.6-0.3,0.8h4.3c0,0,3.1,0.1,3-0.5l0,0l0,0v-0.1
		c0-2.5,2.1-4.6,4.6-4.6c0.3,0,0.6,0,0.8,0.1C37.4,23,37.5,22.7,37.4,22.5 M23.7,5.9c0-0.3,0.2-0.5,0.5-0.5s0.5,0.2,0.5,0.5
		s-0.2,0.5-0.5,0.5S23.7,6.2,23.7,5.9 M18.8,14.6c0.1,0.2,0.1,0.4,0,0.5c-0.2,0.2-0.3,0-0.4-0.1c-0.3-0.4-0.4-1-0.3-1.5
		c0.1-0.3,0.1-0.6,0.2-0.8c0.2-0.5,0.1-1-0.1-1.4c0,0,0-0.1-0.1-0.2c-0.1-0.2-0.1-0.4,0.1-0.5c0.1-0.1,0.2-0.1,0.3,0.1
		c0.2,0.4,0.4,0.8,0.4,1.3c0,0.4-0.1,0.7-0.2,1C18.6,13.6,18.5,14.1,18.8,14.6 M20.3,12.8c0.1,0.1,0.1,0.2,0,0.3s-0.2,0-0.3-0.1
		c-0.2-0.3-0.3-0.6-0.2-0.9c0-0.2,0.1-0.3,0.2-0.5c0.1-0.3,0.1-0.6-0.1-0.8c0,0,0-0.1-0.1-0.1c0-0.1,0-0.2,0.1-0.3s0.2,0,0.3,0.1
		c0.2,0.2,0.3,0.5,0.3,0.8c0,0.2-0.1,0.4-0.1,0.6C20.1,12.2,20,12.5,20.3,12.8 M21.7,14.7c-0.1,0.1-0.2,0-0.3-0.1
		c-0.2-0.4-0.4-0.8-0.3-1.3c0-0.2,0.1-0.5,0.1-0.7c0.1-0.4,0.1-0.8-0.1-1.2c0,0,0-0.1-0.1-0.1c-0.1-0.1-0.1-0.3,0-0.4
		c0.1-0.1,0.2-0.1,0.3,0.1c0.2,0.3,0.4,0.6,0.4,1.1c0,0.3,0,0.6-0.1,0.9c-0.1,0.5-0.2,0.9,0.1,1.3C21.8,14.4,21.8,14.6,21.7,14.7
		 M26.1,22.6c-0.9-0.1-1.6-0.8-1.6-1.7c0-0.6,0.1-1.9,1.8-2.2h0.6L26.1,22.6z M27.2,24.1l1-4.1l0.5,4.2
		C28.5,24.1,27.4,24.1,27.2,24.1 M29.1,25.1c0-0.1,0-0.2,0-0.3c0-0.1-0.1-0.2-0.2-0.3h0.6l0.5,0.2C29.8,24.9,29.5,25,29.1,25.1"/>
	<path class="st1" d="M43.5,31.7H6.3c-0.2,0-0.4,0.2-0.4,0.4v0.2c0,0.2,0.2,0.4,0.4,0.4h37.2c0.2,0,0.4-0.2,0.4-0.4v-0.2
		C43.9,31.8,43.8,31.7,43.5,31.7"/>
</g>
<text transform="matrix(1.1716 0 0 1 16.2437 44.3867)" style="display:none;fill:#1E1E1E;enable-background:new    ; font-family:'BebasNeueBook'; font-size:2.2564px;">WE SERVE BETTER AND FASTER</text>
<g>
	<path class="st0" d="M45.1,25.7V11.4h9v2.5h-6.6v3.5h5v2.5h-5v5.9L45.1,25.7L45.1,25.7z"/>
	<path class="st0" d="M63.3,25.8c-1.3,0-2.5-0.3-3.6-1s-2-1.5-2.6-2.7c-0.7-1.1-1-2.3-1-3.7c0-1.3,0.3-2.5,1-3.7
		c0.7-1.1,1.5-2,2.6-2.7s2.3-1,3.6-1c1.3,0,2.5,0.3,3.6,1s2,1.5,2.6,2.7c0.7,1.1,1,2.3,1,3.7c0,1.3-0.3,2.5-1,3.7
		c-0.7,1.1-1.5,2-2.6,2.7S64.6,25.8,63.3,25.8z M63.3,13.7c-0.9,0-1.7,0.2-2.4,0.7c-0.7,0.4-1.3,1-1.7,1.8c-0.4,0.7-0.6,1.6-0.6,2.4
		c0,0.9,0.2,1.7,0.6,2.4c0.4,0.7,1,1.3,1.7,1.8c0.7,0.4,1.5,0.7,2.4,0.7c0.9,0,1.7-0.2,2.4-0.7c0.7-0.4,1.3-1,1.7-1.8
		c0.4-0.7,0.6-1.6,0.6-2.4c0-0.9-0.2-1.7-0.6-2.4c-0.4-0.7-1-1.3-1.7-1.8S64.2,13.7,63.3,13.7z"/>
	<path class="st0" d="M80.1,25.8c-1.3,0-2.5-0.3-3.6-1s-2-1.5-2.6-2.7c-0.7-1.1-1-2.3-1-3.7c0-1.3,0.3-2.5,1-3.7
		c0.7-1.1,1.5-2,2.6-2.7s2.3-1,3.6-1c1.3,0,2.5,0.3,3.6,1s2,1.5,2.6,2.7c0.7,1.1,1,2.3,1,3.7c0,1.3-0.3,2.5-1,3.7
		c-0.7,1.1-1.5,2-2.6,2.7S81.4,25.8,80.1,25.8z M80.1,13.7c-0.9,0-1.7,0.2-2.4,0.7c-0.7,0.4-1.3,1-1.7,1.8c-0.4,0.7-0.6,1.6-0.6,2.4
		c0,0.9,0.2,1.7,0.6,2.4s1,1.3,1.7,1.8c0.7,0.4,1.5,0.7,2.4,0.7s1.7-0.2,2.4-0.7c0.7-0.4,1.3-1,1.7-1.8c0.4-0.7,0.6-1.6,0.6-2.4
		c0-0.9-0.2-1.7-0.6-2.4c-0.4-0.7-1-1.3-1.7-1.8C81.8,13.9,81,13.7,80.1,13.7z"/>
	<path class="st0" d="M94.7,25.7h-4.5V11.4h4.5c1,0,1.9,0.2,2.8,0.6c0.9,0.4,1.6,0.9,2.3,1.6c0.6,0.7,1,1.4,1.4,2.3
		c0.3,0.9,0.5,1.7,0.5,2.7c0,0.9-0.2,1.8-0.5,2.7c-0.3,0.9-0.8,1.6-1.4,2.3s-1.4,1.3-2.3,1.6C96.7,25.5,95.7,25.7,94.7,25.7z
		 M92.7,23.3h2c0.7,0,1.3-0.1,1.8-0.4c0.6-0.2,1-0.6,1.4-1c0.4-0.4,0.7-0.9,0.9-1.5c0.2-0.6,0.3-1.2,0.3-1.8c0-0.6-0.1-1.2-0.3-1.8
		c-0.2-0.6-0.5-1.1-0.9-1.5c-0.8-0.9-1.9-1.4-3.3-1.4h-2L92.7,23.3L92.7,23.3z"/>
	<path class="st0" d="M116.6,25.7h-5.4c-1.3,0-2.5-0.3-3.6-1c-1.1-0.6-2-1.5-2.6-2.6c-0.6-1.1-1-2.3-1-3.6c0-1.3,0.3-2.5,1-3.6
		c0.6-1.1,1.5-2,2.6-2.6c1.1-0.7,2.3-1,3.6-1c1,0,2,0.2,2.9,0.6c0.9,0.4,1.7,1,2.4,1.7l-1.8,1.6c-0.4-0.5-1-0.9-1.6-1.1
		c-0.6-0.3-1.2-0.4-1.9-0.4c-0.9,0-1.6,0.2-2.4,0.6c-0.7,0.4-1.3,1-1.7,1.7c-0.4,0.7-0.6,1.5-0.6,2.4c0,0.9,0.2,1.7,0.6,2.4
		s1,1.3,1.7,1.7c0.7,0.4,1.5,0.6,2.4,0.6h2.9v-3h-3.4v-2.4h5.9V25.7z"/>
	<path class="st0" d="M123.1,23.7l-0.9,2h-2.7l6.6-14.3l6.3,14.3h-2.7l-0.9-2H123.1z M126.1,17.3l-1.8,4h3.6L126.1,17.3z"/>
	<path class="st0" d="M137.7,17.2v8.5h-2.5V11.2L144,20v-8.6h2.4V26L137.7,17.2z"/>
	<path class="st0" d="M153.9,25.8c-1,0-1.9-0.3-2.8-0.8c-0.8-0.6-1.5-1.3-2-2.3l2.2-1.1c0.3,0.6,0.6,1,1.1,1.3s1,0.5,1.5,0.5
		c1,0,1.8-0.4,2.4-1.2c0.6-0.8,0.9-1.9,0.9-3.3v-7.5h2.4v7.5c0,2.1-0.5,3.8-1.6,5c-0.5,0.6-1.1,1.1-1.8,1.4
		C155.5,25.7,154.7,25.8,153.9,25.8z"/>
</g>
</svg>
